<svg width="25" height="25" viewBox="0 0 25 25" fill="none" xmlns="http://www.w3.org/2000/svg">
<path fill-rule="evenodd" clip-rule="evenodd" d="M8.5 6.84277C8.22386 6.84277 8 7.06663 8 7.34277V17.3428C8 17.6189 8.22386 17.8428 8.5 17.8428H16.5C16.7761 17.8428 17 17.6189 17 17.3428V9.84279H14.5C14.2239 9.84279 14 9.61893 14 9.34279V6.84277H8.5ZM17.8513 8.98698C17.938 9.07258 17.9935 9.18961 17.9995 9.31959C17.9998 9.32728 18 9.335 18 9.34277V9.34674V17.3428C18 18.1712 17.3284 18.8428 16.5 18.8428H8.5C7.67157 18.8428 7 18.1712 7 17.3428V7.34277C7 6.51435 7.67157 5.84277 8.5 5.84277H14.4999H14.5C14.6392 5.84277 14.7652 5.89969 14.8558 5.99152L17.8513 8.98698ZM15 7.54989V8.84279H16.2929L15 7.54989ZM10 10.8428C9.72386 10.8428 9.5 11.0666 9.5 11.3428C9.5 11.6189 9.72386 11.8428 10 11.8428H12.5C12.7761 11.8428 13 11.6189 13 11.3428C13 11.0666 12.7761 10.8428 12.5 10.8428H10ZM10 12.8428C9.72386 12.8428 9.5 13.0666 9.5 13.3428C9.5 13.6189 9.72386 13.8428 10 13.8428H15C15.2761 13.8428 15.5 13.6189 15.5 13.3428C15.5 13.0666 15.2761 12.8428 15 12.8428H10ZM10 14.8428C9.72386 14.8428 9.5 15.0666 9.5 15.3428C9.5 15.6189 9.72386 15.8428 10 15.8428H14.5C14.7761 15.8428 15 15.6189 15 15.3428C15 15.0666 14.7761 14.8428 14.5 14.8428H10Z" fill="white"/>
</svg>
