<svg width="32" height="33" viewBox="0 0 32 33" fill="none" xmlns="http://www.w3.org/2000/svg">
<g clip-path="url(#clip0_3018_4028)">
<mask id="mask0_3018_4028" style="mask-type:luminance" maskUnits="userSpaceOnUse" x="-1" y="-1" width="34" height="35">
<path d="M-0.799805 -0.0479736H32.8002V33.552H-0.799805V-0.0479736Z" fill="white"/>
</mask>
<g mask="url(#mask0_3018_4028)">
<path d="M28 16.752C28 10.1246 22.6274 4.75197 16 4.75197C9.37259 4.75197 4 10.1246 4 16.752C4 22.3797 7.87432 27.1018 13.1011 28.3986V20.419H10.6266V16.752H13.1011V15.1718C13.1011 11.0874 14.9495 9.19432 18.9594 9.19432C19.7196 9.19432 21.0314 9.34336 21.568 9.49244V12.8166C21.2848 12.7868 20.7929 12.7719 20.1817 12.7719C18.214 12.7719 17.4538 13.5172 17.4538 15.4551V16.752H21.3734L20.7001 20.419H17.4538V28.6641C23.3955 27.9464 28 22.8872 28 16.752Z" fill="white"/>
</g>
</g>
<defs>
<clipPath id="clip0_3018_4028">
<rect width="24" height="24" fill="white" transform="translate(4 4.75195)"/>
</clipPath>
</defs>
</svg>
