<svg width="25" height="24" viewBox="0 0 25 24" fill="none" xmlns="http://www.w3.org/2000/svg">
<path fill-rule="evenodd" clip-rule="evenodd" d="M8.7108 5.51992L8.62485 5.5041C7.69543 5.44368 6.61008 6.05282 6.15857 7.22163C5.52465 8.86276 6.81455 11.8784 9.71768 14.7815C12.6361 17.6999 15.8163 19.0372 17.4074 18.3179C18.5358 17.8077 19.0793 16.6865 18.9898 15.7423C18.9457 15.2762 17.9236 14.4458 16.8892 13.7853L16.5253 13.5601L16.1697 13.3542C15.9375 13.2246 15.7173 13.1113 15.5215 13.0213C15.3012 12.9201 15.0654 12.8973 14.8293 12.9444C14.4177 13.0266 14.0519 13.2948 13.655 13.7145L13.5003 13.8838L13.3578 14.0471L13.2418 13.9757C13.0579 13.8517 12.8343 13.66 12.5598 13.3967L11.2521 12.0941L11.1466 11.9852L10.9582 11.7826L10.8397 11.6474C10.7216 11.5086 10.6301 11.3868 10.5678 11.2852L10.5158 11.1961L10.8571 10.8435C11.1766 10.496 11.3909 10.1889 11.4984 9.85799C11.5998 9.54583 11.5918 9.233 11.4471 8.94492L11.2722 8.61346L11.0642 8.25062C10.917 8.00285 10.754 7.74557 10.5827 7.49226L10.3206 7.11695C9.74336 6.3175 9.1195 5.63105 8.7108 5.51992ZM8.44708 6.5018L8.57905 6.50372L8.59987 6.51504L8.67896 6.59573L8.80118 6.74443L8.95838 6.94985L9.2419 7.33971L9.55822 7.79381L9.98337 8.43347L10.179 8.74258L10.3526 9.02953L10.4958 9.28303C10.5167 9.32187 10.536 9.35885 10.5535 9.39372C10.5711 9.42875 10.5722 9.47246 10.5473 9.5491C10.495 9.71011 10.3509 9.91661 10.1209 10.1668L9.69133 10.6107C9.24596 11.0853 9.47202 11.5969 10.0939 12.3147L10.3157 12.5616L10.5376 12.7937L11.379 13.6328L11.7141 13.9691L12.0074 14.2529C12.9424 15.1381 13.4644 15.409 13.9776 14.8622L14.2698 14.5232L14.3815 14.4016C14.6463 14.1216 14.8729 13.9554 15.0251 13.9251C15.0608 13.9179 15.0823 13.92 15.1041 13.93C15.1706 13.9606 15.2459 13.9983 15.3283 14.042L15.5943 14.1892L15.8905 14.3637L16.3658 14.659L16.8436 14.9704L17.1441 15.1737L17.4166 15.3641L17.6495 15.5336C17.6844 15.5597 17.7171 15.5845 17.7475 15.608L17.8992 15.7312C17.9588 15.7832 17.9927 15.8199 17.9943 15.8367C18.046 16.3817 17.7044 17.0861 16.9954 17.4067C15.8834 17.9094 13.0816 16.7312 10.4248 14.0744C7.77081 11.4204 6.63469 8.76432 7.09139 7.58197C7.35601 6.89695 7.95157 6.52438 8.44708 6.5018Z" fill="#212E74"/>
</svg>
