<svg width="32" height="33" viewBox="0 0 32 33" fill="none" xmlns="http://www.w3.org/2000/svg">
<circle cx="16" cy="16.752" r="12" fill="white"/>
<path fill-rule="evenodd" clip-rule="evenodd" d="M16.1714 10.5806C12.8579 10.5806 10.1714 13.2699 10.1714 16.5868C10.1714 19.0591 11.6641 21.1823 13.7958 22.1043C13.7805 21.6856 13.7954 21.1863 13.9013 20.7336C14.0177 20.2449 14.6769 17.449 14.6769 17.449C14.6769 17.449 14.4843 17.0637 14.4843 16.4948C14.4843 15.6024 15.0021 14.9345 15.6455 14.9345C16.1934 14.9345 16.4582 15.3472 16.4582 15.8404C16.4582 16.3914 16.107 17.2154 15.9257 17.9787C15.7755 18.6181 16.2473 19.1401 16.8771 19.1401C18.0171 19.1401 18.785 17.6734 18.785 15.9346C18.785 14.6142 17.8974 13.6248 16.2802 13.6248C14.4542 13.6248 13.315 14.9885 13.315 16.512C13.315 17.037 13.4702 17.4079 13.713 17.6942C13.8243 17.8259 13.8394 17.879 13.7987 18.0308C13.7694 18.141 13.7046 18.408 13.6767 18.5146C13.6369 18.6672 13.5127 18.7207 13.375 18.6646C12.5342 18.3215 12.1417 17.3991 12.1417 16.3624C12.1417 14.6497 13.5845 12.5964 16.4454 12.5964C18.7451 12.5964 20.2579 14.2622 20.2579 16.049C20.2579 18.4149 18.9443 20.1807 17.0089 20.1807C16.3586 20.1807 15.7466 19.8288 15.5382 19.43C15.5382 19.43 15.1874 20.8175 15.1142 21.0866C14.9878 21.5446 14.7443 22.0021 14.5187 22.3623C15.0431 22.5124 15.5975 22.593 16.1714 22.593C19.4849 22.593 22.1714 19.9037 22.1714 16.5868C22.1714 13.2699 19.4849 10.5806 16.1714 10.5806Z" fill="#212E74"/>
</svg>
