<svg width="25" height="24" viewBox="0 0 25 24" fill="none" xmlns="http://www.w3.org/2000/svg">
<path fill-rule="evenodd" clip-rule="evenodd" d="M15.9919 5.41012C15.9496 5.17688 15.7455 5 15.5 5H9.5L9.41012 5.00806C9.17688 5.05039 9 5.25454 9 5.5V8H6L5.91012 8.00806C5.67688 8.05039 5.5 8.25454 5.5 8.5V15L5.50806 15.0899C5.55039 15.3231 5.75454 15.5 6 15.5H8.5V18.5C8.5 18.7761 8.72386 19 9 19H16C16.2761 19 16.5 18.7761 16.5 18.5V15.5H19L19.0899 15.4919C19.3231 15.4496 19.5 15.2455 19.5 15V8.5L19.4919 8.41012C19.4496 8.17688 19.2455 8 19 8H16V5.5L15.9919 5.41012ZM9.5 18V15V13.5H15.5V15V18H9.5ZM16.5 13.5V14.5H18.5V9H6.5V14.5H8.5V13.5H8C7.72386 13.5 7.5 13.2761 7.5 13C7.5 12.7545 7.67688 12.5504 7.91012 12.5081L8 12.5H9H16H17C17.2761 12.5 17.5 12.7239 17.5 13C17.5 13.2455 17.3231 13.4496 17.0899 13.4919L17 13.5H16.5ZM15 8L14.999 6H9.999L10 8H15ZM14 14.5C14.2761 14.5 14.5 14.7239 14.5 15C14.5 15.2455 14.3231 15.4496 14.0899 15.4919L14 15.5H11C10.7239 15.5 10.5 15.2761 10.5 15C10.5 14.7545 10.6769 14.5504 10.9101 14.5081L11 14.5H14ZM14.5 16.5C14.5 16.2239 14.2761 16 14 16H11L10.9101 16.0081C10.6769 16.0504 10.5 16.2545 10.5 16.5C10.5 16.7761 10.7239 17 11 17H14L14.0899 16.9919C14.3231 16.9496 14.5 16.7455 14.5 16.5Z" fill="#212E74"/>
</svg>
