<svg width="25" height="24" viewBox="0 0 25 24" fill="none" xmlns="http://www.w3.org/2000/svg">
<path fill-rule="evenodd" clip-rule="evenodd" d="M9 6.14282H16C16.8284 6.14282 17.5 6.8144 17.5 7.64282V18.4285C17.5 19.257 16.8284 19.9285 16 19.9285H9C8.17157 19.9285 7.5 19.257 7.5 18.4285V7.64282C7.5 6.8144 8.17157 6.14282 9 6.14282ZM9 7.14282C8.72386 7.14282 8.5 7.36668 8.5 7.64282V18.4285C8.5 18.7047 8.72386 18.9285 9 18.9285H16C16.2761 18.9285 16.5 18.7047 16.5 18.4285V7.64282C16.5 7.36668 16.2761 7.14282 16 7.14282H9Z" fill="#212E74"/>
<path fill-rule="evenodd" clip-rule="evenodd" d="M8.64307 7.07144V5.21557C8.64307 4.51747 9.23667 3.96672 9.93281 4.01893L15.2471 4.4175C15.8733 4.46447 16.3574 4.98622 16.3574 5.61414V7.07144H8.64307ZM15.3574 5.61414C15.3574 5.50949 15.2767 5.42253 15.1723 5.4147L9.85802 5.01613C9.79871 5.01168 9.74386 5.0335 9.70441 5.07144C9.6667 5.10771 9.64307 5.1587 9.64307 5.21557V6.07144H15.3574V5.61414Z" fill="#212E74"/>
<path fill-rule="evenodd" clip-rule="evenodd" d="M9.64307 8.78577C9.64307 8.50962 9.86692 8.28577 10.1431 8.28577H14.8574C15.1335 8.28577 15.3574 8.50962 15.3574 8.78577C15.3574 9.06191 15.1335 9.28577 14.8574 9.28577H10.1431C9.86692 9.28577 9.64307 9.06191 9.64307 8.78577Z" fill="#212E74"/>
<path fill-rule="evenodd" clip-rule="evenodd" d="M9.64307 10.9286C9.64307 10.6524 9.86692 10.4286 10.1431 10.4286H14.8574C15.1335 10.4286 15.3574 10.6524 15.3574 10.9286C15.3574 11.2047 15.1335 11.4286 14.8574 11.4286H10.1431C9.86692 11.4286 9.64307 11.2047 9.64307 10.9286Z" fill="#212E74"/>
<path fill-rule="evenodd" clip-rule="evenodd" d="M9.64307 13.0714C9.64307 12.7953 9.86692 12.5714 10.1431 12.5714H14.8574C15.1335 12.5714 15.3574 12.7953 15.3574 13.0714C15.3574 13.3476 15.1335 13.5714 14.8574 13.5714H10.1431C9.86692 13.5714 9.64307 13.3476 9.64307 13.0714Z" fill="#212E74"/>
<path fill-rule="evenodd" clip-rule="evenodd" d="M11.7856 16.7144V18.9061H13.2142V16.7144H11.7856ZM11.2856 15.7144C11.0095 15.7144 10.7856 15.9382 10.7856 16.2144V19.9061H14.2142V16.2144C14.2142 15.9382 13.9904 15.7144 13.7142 15.7144H11.2856Z" fill="#212E74"/>
</svg>
